<svg xmlns="http://www.w3.org/2000/svg" viewBox="0 0 215 193"><defs><style>.cls-1{isolation:isolate;}.cls-2{fill:#fafafa;}.cls-3{fill:#27d250;}.cls-4{fill:#0eb737;}.cls-5{fill:#008123;}.cls-6{fill:#6fe476;}.cls-7{fill:#0e9321;}.cls-8{fill:#27be48;}.cls-9{fill:#bff4c0;}.cls-10{fill:#14336a;}.cls-11,.cls-12{fill:#fff;}.cls-12{opacity:0.3;mix-blend-mode:screen;}</style></defs><title>mr-roboto2</title><g class="cls-1"><g id="Background"><rect class="cls-2" x="-133" y="-128" width="500" height="500"/></g><g id="Objects"><path class="cls-3" d="M197.29,58.64h0a8.4,8.4,0,0,1-8.38-8.37v-7.5a8.4,8.4,0,0,1,8.38-8.38h0a8.39,8.39,0,0,1,8.37,8.38v7.5A8.39,8.39,0,0,1,197.29,58.64Z"/><path class="cls-4" d="M189.73,52.64C189,61.57,186,68.56,181,73.46c-10,9.62-25.53,8.88-25.86,8.86a8,8,0,0,0-1.05,16c.15,0,.88,0,2.06,0,5.9,0,23.12-1.11,35.81-13.22,8.35-8,13-18.89,13.86-32.48Z"/><path class="cls-5" d="M192.73,84.29c.71-.71,1.39-1.44,2-2.2L182.91,71.32a26.59,26.59,0,0,1-2,2.14l-.07.07Z"/><path class="cls-5" d="M187.89,62.06c-.34,1-.74,2-1.16,3l17,0q.42-1.47.75-3Z"/><path class="cls-5" d="M177.09,94.41c.92-.35,1.84-.75,2.76-1.17l-6.41-14.66q-1.38.66-2.76,1.17Z"/><rect class="cls-5" x="186.66" y="47.39" width="22" height="8.25"/><path class="cls-6" d="M200.11,45.94a1.55,1.55,0,0,1-.29-1,12.72,12.72,0,0,0-.39-5.08,1.53,1.53,0,0,1,.9-2,1.5,1.5,0,0,1,1.94.87,15.48,15.48,0,0,1,.58,6.43,1.52,1.52,0,0,1-2.74.77Z"/><path class="cls-3" d="M26.46,58.64h0a8.4,8.4,0,0,0,8.37-8.37v-7.5a8.4,8.4,0,0,0-8.37-8.38h0a8.4,8.4,0,0,0-8.38,8.38v7.5A8.4,8.4,0,0,0,26.46,58.64Z"/><path class="cls-4" d="M34,52.64c.76,8.93,3.7,15.92,8.79,20.82,10,9.62,25.53,8.88,25.86,8.86a8,8,0,0,1,1,16c-.15,0-.88,0-2,0-5.91,0-23.13-1.11-35.82-13.22-8.35-8-13-18.89-13.86-32.48Z"/><path class="cls-5" d="M31,84.29c-.7-.71-1.39-1.44-2-2.2L40.83,71.32a25,25,0,0,0,2,2.14l.07.07Z"/><path class="cls-5" d="M35.86,62.06a31.6,31.6,0,0,0,1.16,3L20,65c-.27-1-.52-2-.74-3Z"/><path class="cls-5" d="M46.65,94.41c-.92-.35-1.84-.75-2.76-1.17L50.3,78.58c.92.44,1.85.83,2.77,1.17Z"/><rect class="cls-5" x="15.08" y="47.39" width="22" height="8.25" transform="translate(52.16 103.03) rotate(180)"/><path class="cls-6" d="M23.63,45.94a1.45,1.45,0,0,0,.29-1,13.19,13.19,0,0,1,.39-5.08,1.52,1.52,0,0,0-2.84-1.08,15.39,15.39,0,0,0-.57,6.43,1.52,1.52,0,0,0,1.65,1.38A1.49,1.49,0,0,0,23.63,45.94Z"/><rect class="cls-5" x="97.41" y="62.64" width="30.5" height="12"/><rect class="cls-3" x="92" y="142.59" width="11.33" height="39.47"/><rect class="cls-4" x="92" y="151.84" width="11.33" height="2.75"/><rect class="cls-4" x="92" y="162.84" width="11.33" height="2.75"/><rect class="cls-4" x="92" y="172.31" width="11.33" height="2.75"/><path class="cls-5" d="M85.5,136.05a9.52,9.52,0,0,0,9.42,8.37h6.74a9.52,9.52,0,0,0,9.42-8.37Z"/><rect class="cls-3" x="84.7" y="131.67" width="27.19" height="6.17"/><rect class="cls-3" x="84.7" y="131.07" width="27.19" height="0.6"/><rect class="cls-4" x="88.62" y="131.67" width="20.09" height="6.17"/><rect class="cls-5" x="101.15" y="131.67" width="3.17" height="6.17"/><rect class="cls-5" x="91.59" y="131.67" width="9.81" height="6.17"/><path class="cls-5" d="M110.08,179.44a9.53,9.53,0,0,0-9.42-8.37H93.92a9.53,9.53,0,0,0-9.42,8.37Z"/><rect class="cls-3" x="83.7" y="177.66" width="27.19" height="6.17" transform="translate(194.59 361.48) rotate(180)"/><rect class="cls-3" x="83.7" y="183.83" width="27.19" height="0.6" transform="translate(194.59 368.25) rotate(180)"/><rect class="cls-4" x="86.87" y="177.66" width="20.09" height="6.17" transform="translate(193.83 361.48) rotate(180)"/><rect class="cls-5" x="91.27" y="177.66" width="3.17" height="6.17" transform="translate(185.71 361.48) rotate(180)"/><rect class="cls-3" x="123.66" y="142.59" width="11.33" height="39.47"/><rect class="cls-4" x="123.66" y="151.84" width="11.33" height="2.75"/><rect class="cls-4" x="123.66" y="162.84" width="11.33" height="2.75"/><rect class="cls-4" x="123.66" y="172.31" width="11.33" height="2.75"/><path class="cls-5" d="M117.17,136.05a9.52,9.52,0,0,0,9.42,8.37h6.74a9.52,9.52,0,0,0,9.42-8.37Z"/><rect class="cls-3" x="116.37" y="131.67" width="27.19" height="6.17"/><rect class="cls-3" x="116.37" y="131.07" width="27.19" height="0.6"/><rect class="cls-4" x="120.29" y="131.67" width="20.09" height="6.17"/><rect class="cls-5" x="132.81" y="131.67" width="3.17" height="6.17"/><rect class="cls-5" x="123.26" y="131.67" width="9.81" height="6.17"/><path class="cls-5" d="M141.75,179.44a9.53,9.53,0,0,0-9.42-8.37h-6.74a9.53,9.53,0,0,0-9.42,8.37Z"/><rect class="cls-3" x="115.37" y="177.66" width="27.19" height="6.17" transform="translate(257.92 361.48) rotate(180)"/><rect class="cls-3" x="115.37" y="183.83" width="27.19" height="0.6" transform="translate(257.92 368.25) rotate(180)"/><rect class="cls-4" x="118.54" y="177.66" width="20.09" height="6.17" transform="translate(257.16 361.48) rotate(180)"/><rect class="cls-5" x="122.94" y="177.66" width="3.17" height="6.17" transform="translate(249.04 361.48) rotate(180)"/><rect class="cls-3" x="66.91" y="15.91" width="94" height="48.79" rx="6.33"/><rect class="cls-4" x="73.51" y="21.5" width="80.81" height="37.62" rx="6.33"/><path class="cls-3" d="M80.87,27.14a1.55,1.55,0,1,1-1.54-1.54A1.54,1.54,0,0,1,80.87,27.14Z"/><path class="cls-3" d="M80.87,54.32a1.55,1.55,0,1,1-1.54-1.55A1.54,1.54,0,0,1,80.87,54.32Z"/><path class="cls-3" d="M150.05,27.14a1.55,1.55,0,1,1-1.55-1.54A1.54,1.54,0,0,1,150.05,27.14Z"/><path class="cls-3" d="M150.05,54.32a1.55,1.55,0,1,1-1.55-1.55A1.54,1.54,0,0,1,150.05,54.32Z"/><circle class="cls-7" cx="98.65" cy="42.19" r="14.37" transform="translate(-0.94 82.11) rotate(-45)"/><circle class="cls-3" cx="96.53" cy="39.64" r="14.37" transform="translate(0.25 79.87) rotate(-45)"/><circle class="cls-8" cx="96.53" cy="39.64" r="10.26" transform="translate(0.25 79.87) rotate(-45)"/><circle class="cls-7" cx="96.53" cy="39.64" r="9.33" transform="translate(4.12 88.11) rotate(-50)"/><circle class="cls-9" cx="96.53" cy="39.64" r="7.59" transform="translate(0.25 79.87) rotate(-45)"/><path class="cls-4" d="M101.26,39.64a4.73,4.73,0,1,1-4.73-4.73A4.73,4.73,0,0,1,101.26,39.64Z"/><circle class="cls-7" cx="131.3" cy="42.19" r="14.37" transform="translate(60.72 160.67) rotate(-77.03)"/><circle class="cls-3" cx="129.18" cy="39.64" r="14.37" transform="translate(58.57 154.85) rotate(-75.55)"/><circle class="cls-8" cx="129.18" cy="39.64" r="10.26" transform="translate(59.43 155.37) rotate(-75.98)"/><circle class="cls-7" cx="129.18" cy="39.64" r="9.33" transform="translate(68.59 160.42) rotate(-80.42)"/><circle class="cls-9" cx="129.18" cy="39.64" r="7.59" transform="translate(68.58 160.41) rotate(-80.41)"/><path class="cls-4" d="M133.91,39.64a4.73,4.73,0,1,1-4.73-4.73A4.73,4.73,0,0,1,133.91,39.64Z"/><rect class="cls-4" x="78.58" y="90.15" width="70.67" height="42.98" rx="6.33"/><rect class="cls-3" x="61.58" y="70.14" width="104.67" height="54.33" rx="6.33"/><circle class="cls-4" cx="75.4" cy="82.65" r="1.72"/><circle class="cls-4" cx="75.4" cy="112.91" r="1.72"/><path class="cls-4" d="M154.15,82.65a1.73,1.73,0,1,1-1.72-1.72A1.72,1.72,0,0,1,154.15,82.65Z"/><path class="cls-4" d="M154.15,112.91a1.73,1.73,0,1,1-1.72-1.72A1.73,1.73,0,0,1,154.15,112.91Z"/><path class="cls-4" d="M84.91,79.64v8h-2.5v2.25h2.5v15.75h-2.5v2.25h2.5v8.25h61.5V79.64Zm60.5,35.5H85.91v-7.25h2.25v-2.25H85.91V89.89h2.25V87.64H85.91v-7h59.5Z"/></g><g id="Designed_By_Freepik" data-name="Designed By Freepik"><path class="cls-10" d="M106.84,108.14c-3.57,0-5.44-1.87-5.68-5,0-.58,0-1.12,0-1.91V83.74H94.64v16.55c0,1.33,0,2.16.08,3.66.38,4.81,3.74,9,12.12,9h.68l1.88-5.22A7.26,7.26,0,0,1,106.84,108.14Z"/><polygon class="cls-10" points="112.57 83.74 112.57 98.95 118.06 83.74 112.57 83.74"/><path class="cls-11" d="M126.27,83.74h-8.21L112.57,99v2.3a12.15,12.15,0,0,1-.09,1.91,4.78,4.78,0,0,1-3.08,4.56l-1.88,5.22a13.83,13.83,0,0,0,7.81-2.24l2-6h8.1l-1.65-5.2H119l.09-.3,3-9.7L125,99l2,6.21,2.49,7.71h7.2Z"/><polygon class="cls-12" points="129.54 112.94 136.69 112.94 131.92 99.56 129.54 112.94"/><polygon class="cls-12" points="121.64 90.9 123.88 83.74 118.09 83.74 116.66 87.68 119.04 99.21 121.64 90.9"/></g></g></svg>