<svg width="256" height="51" viewBox="0 0 256 51" fill="none" xmlns="http://www.w3.org/2000/svg">
<path d="M20.52 50.96C14.08 50.96 9.06 49.22 5.46 45.74C1.86 42.26 0.0600002 37.38 0.0600002 31.1V8H14.22V30.68C14.22 33.76 14.76 36 15.84 37.4C16.96 38.8 18.56 39.5 20.64 39.5C22.72 39.5 24.3 38.8 25.38 37.4C26.5 36 27.06 33.76 27.06 30.68V8H40.98V31.1C40.98 37.38 39.18 42.26 35.58 45.74C31.98 49.22 26.96 50.96 20.52 50.96ZM69.8508 16.58C73.8908 16.58 77.1308 17.8 79.5708 20.24C82.0508 22.68 83.2908 26.36 83.2908 31.28V50H69.7308V33.62C69.7308 29.86 68.3908 27.98 65.7108 27.98C64.1908 27.98 62.9508 28.52 61.9908 29.6C61.0708 30.64 60.6108 32.3 60.6108 34.58V50H47.0508V17.18H59.9508V20.42C61.2308 19.14 62.7108 18.18 64.3908 17.54C66.0708 16.9 67.8908 16.58 69.8508 16.58ZM89.1797 17.18H102.74V50H89.1797V17.18ZM95.9597 14.54C93.5197 14.54 91.5397 13.9 90.0197 12.62C88.5397 11.3 87.7997 9.64 87.7997 7.64C87.7997 5.64 88.5397 4 90.0197 2.72C91.5397 1.4 93.5197 0.739998 95.9597 0.739998C98.4397 0.739998 100.42 1.36 101.9 2.6C103.38 3.84 104.12 5.44 104.12 7.4C104.12 9.48 103.38 11.2 101.9 12.56C100.42 13.88 98.4397 14.54 95.9597 14.54Z" fill="#65AD2F"/>
<path d="M119.79 50.96C116.51 50.96 113.53 50.44 110.85 49.4C108.21 48.32 106.03 46.76 104.31 44.72L111.93 35.72C113.05 37.12 114.15 38.16 115.23 38.84C116.31 39.52 117.43 39.86 118.59 39.86C120.07 39.86 121.19 39.42 121.95 38.54C122.75 37.66 123.15 36.36 123.15 34.64V18.68H108.87V8H137.13V33.8C137.13 39.52 135.65 43.82 132.69 46.7C129.77 49.54 125.47 50.96 119.79 50.96ZM160.543 50.6C156.903 50.6 153.623 49.88 150.703 48.44C147.823 46.96 145.563 44.94 143.923 42.38C142.283 39.78 141.463 36.84 141.463 33.56C141.463 30.28 142.283 27.36 143.923 24.8C145.563 22.2 147.823 20.18 150.703 18.74C153.623 17.3 156.903 16.58 160.543 16.58C164.223 16.58 167.503 17.3 170.383 18.74C173.303 20.18 175.563 22.2 177.163 24.8C178.803 27.36 179.623 30.28 179.623 33.56C179.623 36.84 178.803 39.78 177.163 42.38C175.563 44.94 173.303 46.96 170.383 48.44C167.503 49.88 164.223 50.6 160.543 50.6ZM160.543 40.04C162.103 40.04 163.383 39.48 164.383 38.36C165.383 37.2 165.883 35.6 165.883 33.56C165.883 31.52 165.383 29.94 164.383 28.82C163.383 27.7 162.103 27.14 160.543 27.14C158.983 27.14 157.703 27.7 156.703 28.82C155.703 29.94 155.203 31.52 155.203 33.56C155.203 35.6 155.703 37.2 156.703 38.36C157.703 39.48 158.983 40.04 160.543 40.04ZM205.767 16.58C208.647 16.58 211.287 17.28 213.687 18.68C216.127 20.04 218.047 22.02 219.447 24.62C220.887 27.18 221.607 30.16 221.607 33.56C221.607 36.96 220.887 39.96 219.447 42.56C218.047 45.16 216.127 47.16 213.687 48.56C211.287 49.92 208.647 50.6 205.767 50.6C201.727 50.6 198.727 49.5 196.767 47.3V50H183.867V5.48H197.427V19.4C199.347 17.52 202.127 16.58 205.767 16.58ZM202.527 40.04C204.087 40.04 205.367 39.48 206.367 38.36C207.367 37.2 207.867 35.6 207.867 33.56C207.867 31.52 207.367 29.94 206.367 28.82C205.367 27.7 204.087 27.14 202.527 27.14C200.967 27.14 199.687 27.7 198.687 28.82C197.687 29.94 197.187 31.52 197.187 33.56C197.187 35.6 197.687 37.2 198.687 38.36C199.687 39.48 200.967 40.04 202.527 40.04ZM238.719 50.6C235.919 50.6 233.159 50.3 230.439 49.7C227.719 49.1 225.519 48.32 223.839 47.36L227.559 38.42C229.079 39.34 230.879 40.06 232.959 40.58C235.039 41.1 237.059 41.36 239.019 41.36C240.579 41.36 241.659 41.24 242.259 41C242.899 40.72 243.219 40.32 243.219 39.8C243.219 39.28 242.819 38.92 242.019 38.72C241.259 38.52 239.999 38.32 238.239 38.12C235.559 37.8 233.279 37.4 231.399 36.92C229.519 36.4 227.859 35.42 226.419 33.98C225.019 32.54 224.319 30.48 224.319 27.8C224.319 25.68 224.959 23.78 226.239 22.1C227.519 20.42 229.419 19.08 231.939 18.08C234.499 17.08 237.559 16.58 241.119 16.58C243.599 16.58 246.019 16.82 248.379 17.3C250.779 17.74 252.819 18.4 254.499 19.28L250.779 28.22C247.899 26.62 244.739 25.82 241.299 25.82C238.339 25.82 236.859 26.34 236.859 27.38C236.859 27.9 237.259 28.28 238.059 28.52C238.859 28.72 240.119 28.92 241.839 29.12C244.519 29.44 246.779 29.86 248.619 30.38C250.499 30.9 252.139 31.88 253.539 33.32C254.979 34.76 255.699 36.82 255.699 39.5C255.699 41.54 255.059 43.4 253.779 45.08C252.499 46.76 250.579 48.1 248.019 49.1C245.459 50.1 242.359 50.6 238.719 50.6Z" fill="#0E346A"/>
</svg>
